<svg width="175" height="120" xmlns="http://www.w3.org/2000/svg">
 <defs>
  <linearGradient y2="0.499996" x2="1.000002" y1="0.499996" x1="0.000002" id="SVGID_1_">
   <stop stop-color="#C41718" stop-opacity="0" offset="0"/>
   <stop stop-color="#AF1917" stop-opacity="0" offset="1"/>
  </linearGradient>
  <linearGradient y2="0.499967" x2="1.064951" y1="0.499967" x1="-0.064977" id="SVGID_2_">
   <stop stop-color="#C41718" stop-opacity="0" offset="0"/>
   <stop stop-color="#AF1917" stop-opacity="0" offset="1"/>
  </linearGradient>
  <linearGradient y2="0.500019" x2="1.064938" y1="0.500019" x1="-0.064996" id="SVGID_3_">
   <stop stop-color="#C41718" stop-opacity="0" offset="0"/>
   <stop stop-color="#AF1917" stop-opacity="0" offset="1"/>
  </linearGradient>
  <linearGradient y2="0.5" x2="1.06497" y1="0.5" x1="-0.064964" id="SVGID_4_">
   <stop stop-color="#C41718" stop-opacity="0" offset="0"/>
   <stop stop-color="#AF1917" stop-opacity="0" offset="1"/>
  </linearGradient>
 </defs>
 <g>
  <title>Layer 1</title>
  <path id="svg_1" d="m173.571991,104.640991c0,6.626984 -5.372009,12 -12,12l-146.856995,0c-6.626999,0 -12,-5.373016 -12,-12l0,-90.000977c0,-6.627014 5.373001,-12 12,-12l146.856995,0c6.627991,0 12,5.372986 12,12l0,90.000977z" stroke-width="2" stroke="#FFFFFF" fill="url(#SVGID_1_)"/>
  <path id="svg_2" d="m173.102997,37.501007c-0.687012,-5.604004 -9.687988,-5.095001 -14.334991,-3.977997c-5.927002,1.429993 -13.915009,-4.895996 -15.57901,-4.01001c-4.897003,-1.645996 -11.149994,-4.119995 -16.35498,-3.649994c-0.234009,4.083008 0.122986,6.322998 -3.021027,7.354004c-2.402985,0.796997 -3.759979,3.214996 -3.759979,5.658997c-0.812012,-0.253998 -1.516022,-2.259003 -9.703003,-0.165009c-4.466003,-0.593994 -9.095001,-6.955994 -13.052002,-8.041992c-1.31601,5.097015 1.917999,10.919006 -3.631012,8.785004c-4.104004,-1.554993 -2.388977,5.006989 -4.610992,6.52301c-2.548004,1.755005 -15.328003,3.48999 -13.014008,8.515991c0.906006,1.985992 2.841003,2.618011 3.343994,4.821991c0.364014,1.666016 -1.569977,5.300018 1.557007,5.753021c2.438019,0.319 1.300995,7.278992 -1.520996,6.176971c-3.450012,-1.315979 -2.81601,-7.607971 -8.402008,-4.934998c-2.694977,1.286011 -7.069977,-0.991974 -9.776978,-1.336975c0.233978,0.922974 0.358978,1.934998 0.414001,2.875977c-5.424011,-1.80899 -13.377014,0.344025 -18.129013,3.270996c-2.388,0.813019 -4.916,3.201019 -6.651001,2.364014c-0.832993,0.27301 -7.393997,-1.838989 -4.990997,-3.087006c-2.906998,0.290009 -8.421005,0.251007 -10.734009,-1.845001c-1.210999,4.104004 -1.372986,9.289001 -6.811996,9.453003c3.363998,-5.904999 -6.570999,-7.729004 -11.623001,-7.699982l0,14.516998c1.001007,0.328979 2.07901,0.889984 2.962997,1.858978c1.700012,1.839996 7.753006,5.601013 9.867004,2.946014c1.141006,-1.427002 2.442001,-3.309998 4.393005,-2.981018c1.627991,0.288025 0.289001,3.197021 2.785995,3.870026c3.016998,0.737976 5.744995,1.445984 8.766006,2.342987c2.981995,0.867004 5.259995,-4.386993 8.166992,-5.20401c4.792007,-1.392975 8.875,-0.720978 13.682007,-1.427002c3.290985,-0.488983 6.126984,-3.052002 9.597992,-2.312988c-6.08902,3.709015 5.962982,12.309998 9.128998,13.303009c10.221008,3.270996 19.007996,2.139008 28.933014,3.475006l0,-23.53302c-4.325012,-0.498016 -7.695007,-4.177002 -7.695007,-8.632996c0,-4.794006 3.899994,-8.694 8.694977,-8.694c4.794037,0 8.694031,3.899994 8.694031,8.694c0,4.455994 -3.369995,8.134979 -7.694,8.632996l0,23.914001c4.541992,1.179993 13.158997,4.834991 16.708008,2.959991c0.714996,-0.375 1.857971,-1.281982 3.154999,-2.332001l0,-37.819c-4.325012,-0.497986 -7.695007,-4.177002 -7.695007,-8.631989c0,-4.794006 3.899994,-8.695007 8.695007,-8.695007c4.793976,0 8.694,3.901001 8.694,8.695007c0,4.454987 -3.370026,8.134003 -7.694,8.631989l0,36.208008c2.003998,-1.589996 4.060974,-3.093994 5.365997,-3.360016c3.524994,-0.737976 6.126984,1.06601 9.867981,0.728027c1.729004,-0.165009 3.160004,-0.721008 4.506012,-1.26001l0,-20.772003c-4.324005,-0.498016 -7.694,-4.177002 -7.694,-8.632996c0,-4.794006 3.899994,-8.695007 8.694,-8.695007c4.794983,0 8.695007,3.901001 8.695007,8.695007c0,4.455994 -3.370026,8.134979 -7.695007,8.632996l0,20.020996c1.959991,-0.622986 3.958008,-0.743988 6.690002,1.014008c-3.147003,-5.186005 6.721008,-11.063995 10.591003,-10.231018c-1.591003,-4.192993 -3.001007,-11.513 2.388,-14.294983c6.845978,-3.544006 -4.701019,-5.981995 -2.223999,-6.97699c4.621002,-1.871002 7.385986,2.973999 9.523987,1.577972l0,-24.441986c-0.352997,-2.040009 -0.394989,-4.03299 -0.470001,-4.593994z" fill="#FFFFFF"/>
  <g id="svg_3">
   <path id="svg_4" d="m43.537003,41.558014l-18.593002,0c-2.352997,0 -4.531998,-0.421997 -6.537003,-1.266998c-2.005997,-0.843994 -3.73999,-1.998016 -5.203003,-3.460999c-1.462997,-1.462006 -2.616989,-3.196014 -3.459991,-5.203003c-0.845001,-2.005005 -1.266998,-4.169006 -1.266998,-6.492004c0,-2.321991 0.421997,-4.485992 1.266998,-6.492004c0.843994,-2.005005 1.998001,-3.738983 3.459991,-5.203003c1.463013,-1.462006 3.197006,-2.615997 5.203003,-3.460999c2.005005,-0.843994 4.184998,-1.266998 6.537003,-1.266998s4.531006,0.423004 6.537003,1.266998c2.00499,0.845001 3.738998,1.998993 5.203003,3.460999c1.46199,1.463013 2.615997,3.197021 3.459991,5.203003c0.844009,2.006012 1.266998,4.170013 1.266998,6.492004c0,1.356995 -0.181,2.708008 -0.542999,4.049011c-0.362,1.34198 -0.882004,2.593994 -1.560989,3.754974c-0.678009,1.162018 -1.493011,2.202026 -2.443008,3.122009c-0.949997,0.920013 -2.028,1.636017 -3.233994,2.149017l0,0.089996l9.906998,0l0,3.257996zm-30.988998,-16.422028c0,1.809998 0.317001,3.498993 0.949997,5.067017c0.632996,1.567993 1.5,2.93399 2.600998,4.093994c1.100998,1.16098 2.404999,2.074005 3.912994,2.737c1.508011,0.664001 3.151001,0.994995 4.931,0.994995c1.749008,0 3.38501,-0.332001 4.909012,-0.994995c1.521988,-0.662994 2.834,-1.576019 3.935989,-2.737c1.101013,-1.161011 1.968002,-2.526001 2.601013,-4.093994c0.633987,-1.568024 0.949997,-3.257019 0.949997,-5.067017c0,-1.778992 -0.309998,-3.453003 -0.927002,-5.020996c-0.619003,-1.567993 -1.477997,-2.933014 -2.57901,-4.093994c-1.10199,-1.161011 -2.405991,-2.080994 -3.912994,-2.759003c-1.509003,-0.679016 -3.166992,-1.018005 -4.977005,-1.018005s-3.468994,0.338989 -4.975998,1.018005c-1.509003,0.678009 -2.812988,1.598999 -3.914001,2.759003c-1.100998,1.161987 -1.959991,2.526001 -2.578995,4.093994c-0.617004,1.568024 -0.925995,3.240997 -0.925995,5.020996z" fill="#FFFFFF"/>
  </g>
  <g id="svg_5">
   <path id="svg_6" d="m53.72699,9.528015l3.574005,0l13.617004,32.028992l-4.434021,0l-3.256989,-7.872009l-16.014999,0l-3.302002,7.872009l-4.298004,0l14.115005,-32.028992zm1.719025,4.885986l-0.089996,0l-6.649994,15.743011l13.073975,0l-6.333984,-15.743011z" fill="#FFFFFF"/>
   <path id="svg_7" d="m92.497009,13.057007l-10.585999,0l0,28.5l-3.799988,0l0,-28.5l-10.585999,0l0,-3.528992l24.971985,0l0,3.528992z" fill="#FFFFFF"/>
  </g>
  <circle id="svg_8" r="7.695007" cy="55.251" cx="123.862" stroke-width="2" stroke="url(#SVGID_2_)" fill="#FFFFFF"/>
  <circle id="svg_9" r="7.695007" cy="68.527" cx="101.999" stroke-width="2" stroke="url(#SVGID_3_)" fill="#FFFFFF"/>
  <circle id="svg_10" r="7.695007" cy="66.793" cx="145.603" stroke-width="2" stroke="url(#SVGID_4_)" fill="#FFFFFF"/>
 </g>
</svg>